<svg xmlns="http://www.w3.org/2000/svg" xmlns:xlink="http://www.w3.org/1999/xlink" id="Capa_1" x="0px" y="0px" viewBox="0 0 124 36" style="enable-background:new 0 0 124 36;" xml:space="preserve"><style type="text/css">	.st0{fill:#01CFFF;}	.st1{fill:#FFFFFF;}	.st2{fill-rule:evenodd;clip-rule:evenodd;fill:#FFFFFF;}	.st3{fill-rule:evenodd;clip-rule:evenodd;fill:#3D3D3D;}</style><path class="st0" d="M92.6,30.6c-1.6,0-3-0.2-4.3-0.7s-2.4-1.2-3.3-2.1c-0.9-0.9-1.6-2-2.1-3.2c-0.5-1.3-0.7-2.7-0.7-4.2V14h4.6v6.4 c0,1.2,0.2,2.2,0.6,3c0.4,0.8,0.9,1.4,1.5,1.9c0.6,0.5,1.2,0.8,1.9,1c0.7,0.2,1.3,0.3,1.8,0.3c0.5,0,1.1-0.1,1.8-0.3 c0.7-0.2,1.3-0.5,1.9-1c0.6-0.5,1.1-1.1,1.5-1.9c0.4-0.8,0.6-1.8,0.6-3V6h4.6v14.4c0,1.5-0.2,2.9-0.7,4.2c-0.5,1.3-1.2,2.3-2.1,3.2 c-0.9,0.9-2,1.6-3.3,2.1S94.2,30.6,92.6,30.6z"></path><rect x="82.2" y="5.8" class="st0" width="4.6" height="4.4"></rect><path class="st1" d="M0,27.5l2.5-3.8c1.2,0.9,2.5,1.6,3.7,2.2c1.3,0.6,2.7,0.9,4.1,0.9c0.8,0,1.4-0.1,2-0.3c0.6-0.2,1.1-0.5,1.5-0.7 c0.4-0.3,0.7-0.7,0.9-1.1c0.2-0.4,0.3-0.8,0.3-1.2c0-0.5-0.2-0.9-0.5-1.3c-0.3-0.4-0.7-0.7-1.2-0.9c-0.5-0.2-1.1-0.4-1.8-0.6 c-0.7-0.2-1.4-0.3-2.1-0.4c-0.5-0.1-1-0.2-1.7-0.3c-0.6-0.1-1.3-0.3-2-0.5c-0.7-0.2-1.4-0.5-2-0.9c-0.7-0.4-1.3-0.8-1.8-1.3 c-0.5-0.5-1-1.2-1.3-1.9c-0.3-0.7-0.5-1.6-0.5-2.6c0-1.5,0.3-2.7,0.9-3.6c0.6-1,1.3-1.7,2.2-2.3c0.9-0.6,1.9-1,3-1.2 c1.1-0.2,2.2-0.3,3.2-0.3c1,0,1.9,0.1,2.7,0.2c0.8,0.1,1.5,0.3,2.2,0.6c0.7,0.2,1.3,0.6,2,1c0.7,0.4,1.4,0.9,2.1,1.4l-2.6,3.7 c-1.1-0.8-2.3-1.4-3.3-1.9c-1.1-0.4-2.2-0.6-3.3-0.6c-0.4,0-0.8,0.1-1.4,0.2c-0.5,0.1-1,0.2-1.5,0.5C6,10.7,5.6,11,5.3,11.4 c-0.3,0.3-0.4,0.8-0.4,1.3c0,0.5,0.2,0.9,0.5,1.3c0.4,0.3,0.8,0.6,1.4,0.9c0.6,0.2,1.2,0.4,1.8,0.6c0.7,0.2,1.3,0.3,1.9,0.5 c0.5,0.1,1,0.2,1.6,0.3c0.6,0.1,1.3,0.3,2,0.5c0.7,0.2,1.4,0.5,2,0.8c0.7,0.3,1.2,0.8,1.8,1.3c0.5,0.5,0.9,1.2,1.3,2 c0.3,0.8,0.5,1.7,0.5,2.8c0,1.3-0.2,2.4-0.7,3.4c-0.4,1-1.1,1.7-1.9,2.4c-0.8,0.6-1.8,1.1-2.9,1.4c-1.1,0.3-2.4,0.5-3.7,0.5 c-1.3,0-2.4-0.1-3.3-0.3c-0.9-0.2-1.8-0.4-2.6-0.7c-0.8-0.3-1.5-0.7-2.3-1.2C1.5,28.5,0.8,28,0,27.5z"></path><path class="st1" d="M71,24.6c-0.5,1-1.2,1.9-2,2.7c-0.8,0.8-1.6,1.5-2.6,2.1c-0.9,0.6-1.9,1-3,1.3c-1.1,0.3-2.2,0.5-3.4,0.5 c-1.7,0-3.3-0.3-4.9-1c-1.5-0.7-2.9-1.6-4-2.8c-1.1-1.2-2-2.6-2.7-4.1c-0.7-1.6-1-3.2-1-5c0-1.8,0.3-3.4,1-5 c0.7-1.6,1.6-2.9,2.7-4.1c1.1-1.2,2.5-2.1,4-2.8c1.5-0.7,3.1-1,4.9-1c1.2,0,2.3,0.2,3.4,0.5c1.1,0.3,2.1,0.8,3,1.4 c0.9,0.6,1.8,1.3,2.6,2.1c0.8,0.8,1.4,1.7,2,2.7l-4.3,1.8c-0.4-0.5-0.8-1.1-1.3-1.5c-0.5-0.5-1-0.9-1.6-1.3 c-0.6-0.4-1.2-0.6-1.8-0.9c-0.6-0.2-1.3-0.3-2-0.3c-1.1,0-2.1,0.2-3.1,0.7c-0.9,0.5-1.8,1.1-2.5,1.8c-0.7,0.8-1.3,1.7-1.7,2.7 c-0.4,1-0.6,2.1-0.6,3.2c0,1.1,0.2,2.2,0.6,3.2s1,1.9,1.7,2.7c0.7,0.8,1.5,1.4,2.5,1.9c1,0.5,2,0.7,3.1,0.7c0.7,0,1.3-0.1,2-0.3 c0.6-0.2,1.2-0.5,1.8-0.9c0.6-0.4,1.1-0.8,1.6-1.3c0.5-0.5,0.9-1,1.3-1.6L71,24.6z"></path><path class="st1" d="M78.5,30.7h-4.6V5.8h4.6V30.7z"></path><path class="st1" d="M104.4,27.5l2.5-3.8c1.2,0.9,2.5,1.6,3.7,2.2c1.3,0.6,2.7,0.9,4.1,0.9c0.8,0,1.4-0.1,2-0.3 c0.6-0.2,1.1-0.5,1.5-0.7c0.4-0.3,0.7-0.7,0.9-1.1c0.2-0.4,0.3-0.8,0.3-1.2c0-0.5-0.2-0.9-0.5-1.3c-0.3-0.4-0.7-0.7-1.2-0.9 c-0.5-0.2-1.1-0.4-1.8-0.6c-0.7-0.2-1.4-0.3-2.1-0.4c-0.5-0.1-1-0.2-1.7-0.3c-0.6-0.1-1.3-0.3-2-0.5c-0.7-0.2-1.4-0.5-2-0.9 c-0.7-0.4-1.3-0.8-1.8-1.3c-0.5-0.5-1-1.2-1.3-1.9c-0.3-0.7-0.5-1.6-0.5-2.6c0-1.5,0.3-2.7,0.9-3.6c0.6-1,1.3-1.7,2.2-2.3 c0.9-0.6,1.9-1,3-1.2c1.1-0.2,2.2-0.3,3.2-0.3s1.9,0.1,2.7,0.2c0.8,0.1,1.5,0.3,2.2,0.6c0.7,0.2,1.3,0.6,2,1 c0.7,0.4,1.4,0.9,2.1,1.4l-2.6,3.7c-1.1-0.8-2.3-1.4-3.3-1.9c-1.1-0.4-2.2-0.6-3.3-0.6c-0.4,0-0.8,0.1-1.4,0.2 c-0.5,0.1-1,0.2-1.5,0.5c-0.4,0.2-0.8,0.5-1.1,0.9c-0.3,0.3-0.4,0.8-0.4,1.3c0,0.5,0.2,0.9,0.5,1.3c0.4,0.3,0.8,0.6,1.4,0.9 s1.2,0.4,1.8,0.6c0.7,0.2,1.3,0.3,1.9,0.5c0.5,0.1,1,0.2,1.6,0.3c0.6,0.1,1.3,0.3,2,0.5c0.7,0.2,1.4,0.5,2,0.8 c0.7,0.3,1.2,0.8,1.8,1.3c0.5,0.5,0.9,1.2,1.3,2c0.3,0.8,0.5,1.7,0.5,2.8c0,1.3-0.2,2.4-0.7,3.4c-0.4,1-1.1,1.7-1.9,2.4 c-0.8,0.6-1.8,1.1-2.9,1.4c-1.1,0.3-2.4,0.5-3.7,0.5c-1.3,0-2.4-0.1-3.3-0.3c-0.9-0.2-1.8-0.4-2.6-0.7c-0.8-0.3-1.5-0.7-2.3-1.2 C105.9,28.5,105.2,28,104.4,27.5z"></path><path class="st2" d="M28.6,30.2c1.5,0.7,3.1,1,4.9,1c1.7,0,3.4-0.3,4.9-1c1.5-0.7,2.8-1.6,4-2.8c1.1-1.2,2.1-2.6,2.7-4.1 c0.7-1.6,1-3.2,1-5c0-1.8-0.3-3.4-1-5l-0.4-0.8l-0.5-0.9l-4.2,2l0.4,0.8l0.3,0.7c0.4,1,0.6,2.1,0.6,3.2c0,1.1-0.2,2.2-0.6,3.2 c-0.4,1-1,1.9-1.7,2.7c-0.7,0.8-1.5,1.4-2.5,1.9c-0.9,0.5-2,0.7-3.1,0.7c-1.1,0-2.1-0.2-3.1-0.7c-0.9-0.5-1.8-1.1-2.5-1.9 c-0.7-0.8-1.3-1.7-1.7-2.7c-0.4-1-0.6-2.1-0.6-3.2c0-1.1,0.2-2.2,0.6-3.2c0.4-1,1-2,1.7-2.7c0.7-0.8,1.6-1.4,2.5-1.8 c1-0.5,2-0.7,3.1-0.7V5.3c-1.7,0-3.3,0.3-4.9,1c-1.5,0.7-2.9,1.6-4,2.8c-1.1,1.2-2,2.5-2.7,4.1c-0.7,1.6-1,3.2-1,5 c0,1.8,0.3,3.5,1,5c0.7,1.6,1.6,2.9,2.7,4.1C25.7,28.6,27.1,29.5,28.6,30.2z"></path><path class="st3" d="M44.2,11.6l-4.2,2c0.3,0.5,0.6,1,0.8,1.5l-0.3-0.7L40,13.6L44.2,11.6l0.5,0.9l0.4,0.8 C44.8,12.7,44.5,12.1,44.2,11.6z"></path><path class="st0" d="M44.3,8.2c-2.2-2.7-5.5-4.7-8.8-5v5c2.1,0.2,3.5,1.2,4.8,2.9L44.3,8.2z"></path></svg>